<svg width="320" height="460" viewBox="0 0 320 460" fill="none" xmlns="http://www.w3.org/2000/svg" role="img" aria-label="Apple Music inspired recent music"><defs><linearGradient id="music-apple-music-light-small" x1="0%" y1="0%" x2="100%" y2="100%"><stop offset="0%" stop-color="#fa2d55" /><stop offset="50%" stop-color="#ff375f" /><stop offset="100%" stop-color="#ff7a1a" /></linearGradient><linearGradient id="soft-band-apple-music-light-small" x1="0%" y1="0%" x2="100%" y2="100%"><stop offset="0%" stop-color="#ffffff" /><stop offset="50%" stop-color="#fff1f5" /><stop offset="100%" stop-color="#f5f5f7" /></linearGradient><radialGradient id="glow-apple-music-light-small" cx="50%" cy="50%" r="55%"><stop offset="0%" stop-color="#ff2d55" stop-opacity="0.22" /><stop offset="48%" stop-color="#ff2d55" stop-opacity="0.07" /><stop offset="100%" stop-color="#ff2d55" stop-opacity="0" /></radialGradient><filter id="surface-shadow-apple-music-light-small" x="-10%" y="-20%" width="120%" height="150%"><feDropShadow dx="0" dy="18" stdDeviation="24" flood-color="#b8b8bf" flood-opacity="0.2" /></filter><filter id="cover-shadow-apple-music-light-small" x="-18%" y="-18%" width="136%" height="148%"><feDropShadow dx="0" dy="16" stdDeviation="18" flood-color="#1d1d1f" flood-opacity="0.17" /></filter><clipPath id="card-clip-apple-music-light-small"><rect x="1" y="1" width="318" height="458" rx="28" /></clipPath></defs><g font-family="-apple-system, BlinkMacSystemFont, 'SF Pro Display', 'SF Pro Text', 'Segoe UI', sans-serif"><rect x="1" y="1" width="318" height="458" rx="28" fill="#f5f5f7" /><g clip-path="url(#card-clip-apple-music-light-small)"><rect x="12" y="12" width="296" height="436" rx="28" fill="#ffffff" filter="url(#surface-shadow-apple-music-light-small)" /><g><animateTransform attributeName="transform" type="translate" values="0 0; 42 12; 0 0" dur="16s" repeatCount="indefinite" /><circle cx="13" cy="37" r="294" fill="url(#glow-apple-music-light-small)" /><circle cx="77" cy="23" r="175" fill="#fa2d55" opacity="0.045" /></g><path d="M 221 12 C 253 101, 278 258, 333 448 L 371 448 L 371 12 Z" fill="url(#soft-band-apple-music-light-small)" opacity="0.36" /><g><animateTransform attributeName="transform" type="translate" values="0 0; -44 8; 0 0" dur="18s" repeatCount="indefinite" /><path d="M 166 -6 C 211 124, 250 304, 333 448 L 397 448 L 384 -6 Z" fill="url(#soft-band-apple-music-light-small)" opacity="0.9" /></g><rect x="12.5" y="12.5" width="295" height="435" rx="27" fill="none" stroke="#d9d9df" opacity="0.58" /></g><g filter="url(#cover-shadow-apple-music-light-small)"><clipPath id="cover-clip-apple-music-light-small-36-34"><rect x="36" y="34" width="248" height="248" rx="32" /></clipPath><rect x="36" y="34" width="248" height="248" rx="32" fill="#fbfbfd" /><image href="https://p3.music.126.net/7dbK-A_In2Wol92TDMYIGw==/6636652185368776.jpg" x="36" y="34" width="248" height="248" preserveAspectRatio="xMidYMid slice" clip-path="url(#cover-clip-apple-music-light-small-36-34)" /><rect x="36.5" y="34.5" width="247" height="247" rx="32" fill="none" stroke="#ffffff" opacity="0.84" /></g><text x="160" y="323" text-anchor="middle" font-size="14" fill="#515154" font-weight="700">Recently Played</text><text x="160" y="374" text-anchor="middle" font-size="23" fill="#1d1d1f" font-weight="800">反高潮(Live)</text><text x="160" y="414" text-anchor="middle" font-size="13" fill="#fa2d55" font-weight="700">陈奕迅</text><text x="160" y="434" text-anchor="middle" font-size="12" fill="#6e6e73" font-weight="500">DUO 陈奕迅2010演唱会</text></g></svg>