<svg width="620" height="220" viewBox="0 0 620 220" fill="none" xmlns="http://www.w3.org/2000/svg" role="img" aria-label="Apple Music inspired recent music"><defs><linearGradient id="music-apple-music-light-medium" x1="0%" y1="0%" x2="100%" y2="100%"><stop offset="0%" stop-color="#fa2d55" /><stop offset="50%" stop-color="#ff375f" /><stop offset="100%" stop-color="#ff7a1a" /></linearGradient><linearGradient id="soft-band-apple-music-light-medium" x1="0%" y1="0%" x2="100%" y2="100%"><stop offset="0%" stop-color="#ffffff" /><stop offset="50%" stop-color="#fff1f5" /><stop offset="100%" stop-color="#f5f5f7" /></linearGradient><radialGradient id="glow-apple-music-light-medium" cx="50%" cy="50%" r="55%"><stop offset="0%" stop-color="#ff2d55" stop-opacity="0.22" /><stop offset="48%" stop-color="#ff2d55" stop-opacity="0.07" /><stop offset="100%" stop-color="#ff2d55" stop-opacity="0" /></radialGradient><filter id="surface-shadow-apple-music-light-medium" x="-10%" y="-20%" width="120%" height="150%"><feDropShadow dx="0" dy="18" stdDeviation="24" flood-color="#b8b8bf" flood-opacity="0.2" /></filter><filter id="cover-shadow-apple-music-light-medium" x="-18%" y="-18%" width="136%" height="148%"><feDropShadow dx="0" dy="16" stdDeviation="18" flood-color="#1d1d1f" flood-opacity="0.17" /></filter><clipPath id="card-clip-apple-music-light-medium"><rect x="1" y="1" width="618" height="218" rx="28" /></clipPath></defs><g font-family="-apple-system, BlinkMacSystemFont, 'SF Pro Display', 'SF Pro Text', 'Segoe UI', sans-serif"><rect x="1" y="1" width="618" height="218" rx="28" fill="#f5f5f7" /><g clip-path="url(#card-clip-apple-music-light-medium)"><rect x="12" y="12" width="596" height="196" rx="28" fill="#ffffff" filter="url(#surface-shadow-apple-music-light-medium)" /><g><animateTransform attributeName="transform" type="translate" values="0 0; 42 12; 0 0" dur="16s" repeatCount="indefinite" /><circle cx="25" cy="18" r="141" fill="url(#glow-apple-music-light-medium)" /><circle cx="149" cy="11" r="84" fill="#fa2d55" opacity="0.045" /></g><path d="M 428 12 C 490 48, 539 123, 645 208 L 719 208 L 719 12 Z" fill="url(#soft-band-apple-music-light-medium)" opacity="0.36" /><g><animateTransform attributeName="transform" type="translate" values="0 0; -44 8; 0 0" dur="18s" repeatCount="indefinite" /><path d="M 322 -6 C 409 59, 484 145, 645 208 L 769 208 L 744 -6 Z" fill="url(#soft-band-apple-music-light-medium)" opacity="0.9" /></g><rect x="12.5" y="12.5" width="595" height="195" rx="27" fill="none" stroke="#d9d9df" opacity="0.58" /></g><g filter="url(#cover-shadow-apple-music-light-medium)"><clipPath id="cover-clip-apple-music-light-medium-34-34"><rect x="34" y="34" width="152" height="152" rx="24" /></clipPath><rect x="34" y="34" width="152" height="152" rx="24" fill="#fbfbfd" /><image href="https://p3.music.126.net/7dbK-A_In2Wol92TDMYIGw==/6636652185368776.jpg" x="34" y="34" width="152" height="152" preserveAspectRatio="xMidYMid slice" clip-path="url(#cover-clip-apple-music-light-medium-34-34)" /><rect x="34.5" y="34.5" width="151" height="151" rx="24" fill="none" stroke="#ffffff" opacity="0.84" /></g><text x="222" y="55" text-anchor="start" font-size="15" fill="#515154" font-weight="700">Recently Played</text><text x="222" y="112" text-anchor="start" font-size="30" fill="#1d1d1f" font-weight="800">反高潮(Live)</text><text x="222" y="159" text-anchor="start" font-size="15" fill="#fa2d55" font-weight="700">陈奕迅</text><text x="222" y="181" text-anchor="start" font-size="14" fill="#6e6e73" font-weight="500">DUO 陈奕迅2010演唱会</text></g></svg>