<svg width="960" height="260" viewBox="0 0 960 260" fill="none" xmlns="http://www.w3.org/2000/svg" role="img" aria-label="Apple Music inspired recent music"><defs><linearGradient id="music-apple-music-light-large" x1="0%" y1="0%" x2="100%" y2="100%"><stop offset="0%" stop-color="#fa2d55" /><stop offset="50%" stop-color="#ff375f" /><stop offset="100%" stop-color="#ff7a1a" /></linearGradient><linearGradient id="soft-band-apple-music-light-large" x1="0%" y1="0%" x2="100%" y2="100%"><stop offset="0%" stop-color="#ffffff" /><stop offset="50%" stop-color="#fff1f5" /><stop offset="100%" stop-color="#f5f5f7" /></linearGradient><radialGradient id="glow-apple-music-light-large" cx="50%" cy="50%" r="55%"><stop offset="0%" stop-color="#ff2d55" stop-opacity="0.22" /><stop offset="48%" stop-color="#ff2d55" stop-opacity="0.07" /><stop offset="100%" stop-color="#ff2d55" stop-opacity="0" /></radialGradient><filter id="surface-shadow-apple-music-light-large" x="-10%" y="-20%" width="120%" height="150%"><feDropShadow dx="0" dy="18" stdDeviation="24" flood-color="#b8b8bf" flood-opacity="0.2" /></filter><filter id="cover-shadow-apple-music-light-large" x="-18%" y="-18%" width="136%" height="148%"><feDropShadow dx="0" dy="16" stdDeviation="18" flood-color="#1d1d1f" flood-opacity="0.17" /></filter><clipPath id="card-clip-apple-music-light-large"><rect x="1" y="1" width="958" height="258" rx="30" /></clipPath></defs><g font-family="-apple-system, BlinkMacSystemFont, 'SF Pro Display', 'SF Pro Text', 'Segoe UI', sans-serif"><rect x="1" y="1" width="958" height="258" rx="30" fill="#f5f5f7" /><g clip-path="url(#card-clip-apple-music-light-large)"><rect x="14" y="14" width="932" height="232" rx="30" fill="#ffffff" filter="url(#surface-shadow-apple-music-light-large)" /><g><animateTransform attributeName="transform" type="translate" values="0 0; 42 12; 0 0" dur="16s" repeatCount="indefinite" /><circle cx="38" cy="21" r="166" fill="url(#glow-apple-music-light-large)" /><circle cx="230" cy="13" r="99" fill="#fa2d55" opacity="0.045" /></g><path d="M 662 14 C 758 57, 835 146, 998 246 L 1114 246 L 1114 14 Z" fill="url(#soft-band-apple-music-light-large)" opacity="0.36" /><g><animateTransform attributeName="transform" type="translate" values="0 0; -44 8; 0 0" dur="18s" repeatCount="indefinite" /><path d="M 499 -4 C 634 70, 749 172, 998 246 L 1190 246 L 1152 -4 Z" fill="url(#soft-band-apple-music-light-large)" opacity="0.9" /></g><rect x="14.5" y="14.5" width="931" height="231" rx="29" fill="none" stroke="#d9d9df" opacity="0.58" /></g><g filter="url(#cover-shadow-apple-music-light-large)"><clipPath id="cover-clip-apple-music-light-large-42-42"><rect x="42" y="42" width="176" height="176" rx="28" /></clipPath><rect x="42" y="42" width="176" height="176" rx="28" fill="#fbfbfd" /><image href="https://p3.music.126.net/7dbK-A_In2Wol92TDMYIGw==/6636652185368776.jpg" x="42" y="42" width="176" height="176" preserveAspectRatio="xMidYMid slice" clip-path="url(#cover-clip-apple-music-light-large-42-42)" /><rect x="42.5" y="42.5" width="175" height="175" rx="28" fill="none" stroke="#ffffff" opacity="0.84" /></g><text x="258" y="62" text-anchor="start" font-size="16" fill="#515154" font-weight="700">Recently Played</text><text x="258" y="116" text-anchor="start" font-size="35" fill="#1d1d1f" font-weight="800">反高潮(Live)</text><text x="258" y="176" text-anchor="start" font-size="17" fill="#fa2d55" font-weight="700">陈奕迅</text><text x="258" y="202" text-anchor="start" font-size="16" fill="#6e6e73" font-weight="500">DUO 陈奕迅2010演唱会</text><g><text x="833" y="114" text-anchor="middle" font-size="34" fill="#1d1d1f" font-weight="850">1m</text><text x="833" y="146" text-anchor="middle" font-size="12" fill="#fa2d55" font-weight="800" letter-spacing="1.1">THIS WEEK</text><text x="833" y="169" text-anchor="middle" font-size="12" fill="#86868b" font-weight="600">Listening time</text></g></g></svg>