<svg width="320" height="460" viewBox="0 0 320 460" fill="none" xmlns="http://www.w3.org/2000/svg" role="img" aria-label="NetEase Cloud Music recent music"><defs><linearGradient id="bg-dark-small" x1="0%" y1="0%" x2="100%" y2="0%"><stop offset="0%" stop-color="#090018" /><stop offset="50%" stop-color="#171433" /><stop offset="100%" stop-color="#090018" /></linearGradient><linearGradient id="ring-dark-small" x1="0%" y1="0%" x2="100%" y2="0%"><stop offset="0%" stop-color="#18d5ff" /><stop offset="50%" stop-color="#9b7cff" /><stop offset="100%" stop-color="#ff67c8" /></linearGradient><linearGradient id="shine-dark-small" x1="0%" y1="0%" x2="100%" y2="0%"><stop offset="0%" stop-color="transparent" /><stop offset="50%" stop-color="#ff4fbd" /><stop offset="100%" stop-color="transparent" /></linearGradient><clipPath id="cover-clip-dark-small"><rect x="0" y="0" width="1" height="1" rx="0.08" /></clipPath><filter id="shadow-dark-small" x="-20%" y="-20%" width="140%" height="150%"><feDropShadow dx="0" dy="12" stdDeviation="16" flood-color="#05000d" flood-opacity="0.34" /></filter><filter id="soft-glow-dark-small" x="-30%" y="-30%" width="160%" height="160%"><feGaussianBlur stdDeviation="8" result="blur" /><feMerge><feMergeNode in="blur" /><feMergeNode in="SourceGraphic" /></feMerge></filter><clipPath id="card-clip-dark-small"><rect x="1" y="1" width="318" height="458" rx="24" /></clipPath></defs><rect x="1" y="1" width="318" height="458" rx="24" fill="url(#bg-dark-small)" stroke="#4b2386" /><g clip-path="url(#card-clip-dark-small)"><path d="M 198 -10 L 250 472 L 344 472 L 282 -10 Z" fill="#221444" opacity="0.32" /><rect x="-230" y="-115" width="147" height="713" fill="url(#shine-dark-small)" opacity="0.18" transform="skewX(-18)"><animate attributeName="x" values="-230;587" dur="9s" repeatCount="indefinite" /></rect></g><rect x="36" y="28" width="248" height="248" rx="30" fill="#12072b" stroke="#372066" /><circle cx="160" cy="142.07999999999998" r="59.519999999999996" fill="url(#ring-dark-small)" opacity="0.9" /><circle cx="160" cy="142.07999999999998" r="19.84" fill="#090018" /><text x="160" y="214" text-anchor="middle" font-size="19.84" fill="#b79cff" font-weight="700">NCM</text><text x="160" y="326" text-anchor="middle" font-size="12" fill="#00d9ff" font-weight="900" letter-spacing="1.2">RECENTLY PLAYED</text><text x="160" y="360" text-anchor="middle" font-size="21"><tspan fill="#fff8ff" font-weight="900">No recent song</tspan></text><text x="160" y="403" text-anchor="middle" font-size="13" fill="#ff67c8" font-weight="800">Unknown artist</text><text x="160" y="429" text-anchor="middle" font-size="12" fill="#b79cff" font-weight="500" opacity="0.86">Unknown album</text></svg>