<svg width="320" height="460" viewBox="0 0 320 460" fill="none" xmlns="http://www.w3.org/2000/svg" role="img" aria-label="NetEase Cloud Music recent music"><defs><linearGradient id="bg-light-small" x1="0%" y1="0%" x2="100%" y2="0%"><stop offset="0%" stop-color="#fff1f8" /><stop offset="50%" stop-color="#ffe8f2" /><stop offset="100%" stop-color="#fff1f8" /></linearGradient><linearGradient id="ring-light-small" x1="0%" y1="0%" x2="100%" y2="0%"><stop offset="0%" stop-color="#ffd14f" /><stop offset="50%" stop-color="#c7a4ff" /><stop offset="100%" stop-color="#e93487" /></linearGradient><linearGradient id="shine-light-small" x1="0%" y1="0%" x2="100%" y2="0%"><stop offset="0%" stop-color="transparent" /><stop offset="50%" stop-color="#ff8fad" /><stop offset="100%" stop-color="transparent" /></linearGradient><clipPath id="cover-clip-light-small"><rect x="0" y="0" width="1" height="1" rx="0.08" /></clipPath><filter id="shadow-light-small" x="-20%" y="-20%" width="140%" height="150%"><feDropShadow dx="0" dy="12" stdDeviation="16" flood-color="#f7cada" flood-opacity="0.34" /></filter><filter id="soft-glow-light-small" x="-30%" y="-30%" width="160%" height="160%"><feGaussianBlur stdDeviation="8" result="blur" /><feMerge><feMergeNode in="blur" /><feMergeNode in="SourceGraphic" /></feMerge></filter><clipPath id="card-clip-light-small"><rect x="1" y="1" width="318" height="458" rx="24" /></clipPath></defs><rect x="1" y="1" width="318" height="458" rx="24" fill="url(#bg-light-small)" stroke="#ffc5dd" /><g clip-path="url(#card-clip-light-small)"><path d="M 198 -10 L 250 472 L 344 472 L 282 -10 Z" fill="#fff7fb" opacity="0.32" /><rect x="-230" y="-115" width="147" height="713" fill="url(#shine-light-small)" opacity="0.18" transform="skewX(-18)"><animate attributeName="x" values="-230;587" dur="9s" repeatCount="indefinite" /></rect></g><rect x="36" y="28" width="248" height="248" rx="30" fill="#fffafd" stroke="#ffc8df" /><circle cx="160" cy="142.07999999999998" r="59.519999999999996" fill="url(#ring-light-small)" opacity="0.9" /><circle cx="160" cy="142.07999999999998" r="19.84" fill="#fff1f8" /><text x="160" y="214" text-anchor="middle" font-size="19.84" fill="#9b5a79" font-weight="700">NCM</text><text x="160" y="326" text-anchor="middle" font-size="12" fill="#da2d86" font-weight="900" letter-spacing="1.2">RECENTLY PLAYED</text><text x="160" y="360" text-anchor="middle" font-size="21"><tspan fill="#261126" font-weight="900">No recent song</tspan></text><text x="160" y="403" text-anchor="middle" font-size="13" fill="#e93487" font-weight="800">Unknown artist</text><text x="160" y="429" text-anchor="middle" font-size="12" fill="#9b5a79" font-weight="500" opacity="0.86">Unknown album</text></svg>