<svg width="320" height="460" viewBox="0 0 320 460" fill="none" xmlns="http://www.w3.org/2000/svg" role="img" aria-label="NetEase Cloud Music recent music"><defs><linearGradient id="bg-classic-dark-small" x1="0%" y1="0%" x2="100%" y2="0%"><stop offset="0%" stop-color="#090018" /><stop offset="50%" stop-color="#171433" /><stop offset="100%" stop-color="#090018" /></linearGradient><linearGradient id="ring-classic-dark-small" x1="0%" y1="0%" x2="100%" y2="0%"><stop offset="0%" stop-color="#18d5ff" /><stop offset="50%" stop-color="#9b7cff" /><stop offset="100%" stop-color="#ff67c8" /></linearGradient><linearGradient id="shine-classic-dark-small" x1="0%" y1="0%" x2="100%" y2="0%"><stop offset="0%" stop-color="transparent" /><stop offset="50%" stop-color="#ff4fbd" /><stop offset="100%" stop-color="transparent" /></linearGradient><filter id="shadow-classic-dark-small" x="-20%" y="-20%" width="140%" height="150%"><feDropShadow dx="0" dy="12" stdDeviation="16" flood-color="#05000d" flood-opacity="0.34" /></filter><filter id="soft-glow-classic-dark-small" x="-30%" y="-30%" width="160%" height="160%"><feGaussianBlur stdDeviation="8" result="blur" /><feMerge><feMergeNode in="blur" /><feMergeNode in="SourceGraphic" /></feMerge></filter><clipPath id="card-clip-classic-dark-small"><rect x="1" y="1" width="318" height="458" rx="24" /></clipPath></defs><rect x="1" y="1" width="318" height="458" rx="24" fill="url(#bg-classic-dark-small)" stroke="#4b2386" /><g clip-path="url(#card-clip-classic-dark-small)"><path d="M 198 -10 L 250 472 L 344 472 L 282 -10 Z" fill="#221444" opacity="0.32" /><rect x="-230" y="-115" width="147" height="713" fill="url(#shine-classic-dark-small)" opacity="0.18" transform="skewX(-18)"><animate attributeName="x" values="-230;587" dur="9s" repeatCount="indefinite" /></rect></g><g filter="url(#shadow-classic-dark-small)"><clipPath id="cover-clip-classic-dark-small-36-28"><rect x="36" y="28" width="248" height="248" rx="30" /></clipPath><rect x="36" y="28" width="248" height="248" rx="30" fill="#12072b" /><image href="https://p3.music.126.net/7dbK-A_In2Wol92TDMYIGw==/6636652185368776.jpg" x="36" y="28" width="248" height="248" preserveAspectRatio="xMidYMid slice" clip-path="url(#cover-clip-classic-dark-small-36-28)" /><rect x="36" y="28" width="248" height="248" rx="30" fill="url(#shine-classic-dark-small)" opacity="0.16"><animate attributeName="opacity" values="0.08;0.2;0.08" dur="4.8s" repeatCount="indefinite" /></rect><rect x="36.5" y="28.5" width="247" height="247" rx="30" fill="none" stroke="#372066" opacity="0.9" /></g><text x="160" y="326" text-anchor="middle" font-size="12" fill="#00d9ff" font-weight="900" letter-spacing="1.2">RECENTLY PLAYED</text><text x="160" y="360" text-anchor="middle" font-size="21"><tspan fill="#fff8ff" font-weight="900">反高潮(Live)</tspan></text><text x="160" y="403" text-anchor="middle" font-size="13" fill="#ff67c8" font-weight="800">陈奕迅</text><text x="160" y="429" text-anchor="middle" font-size="12" fill="#b79cff" font-weight="500" opacity="0.86">DUO 陈奕迅2010演唱会</text></svg>